<svg width="238" height="274" viewBox="0 0 238 274" fill="none" xmlns="http://www.w3.org/2000/svg">
<path d="M233.933 89.6668C219.933 28.0668 166.2 0.333496 119 0.333496C119 0.333496 119 0.333496 118.866 0.333496C71.7998 0.333496 17.9331 27.9335 3.93314 89.5335C-11.6669 158.333 30.4665 216.6 68.5998 253.267C82.7331 266.867 100.866 273.667 119 273.667C137.133 273.667 155.266 266.867 169.266 253.267C207.4 216.6 249.533 158.467 233.933 89.6668ZM119 156.467C95.7998 156.467 76.9998 137.667 76.9998 114.467C76.9998 91.2668 95.7998 72.4668 119 72.4668C142.2 72.4668 161 91.2668 161 114.467C161 137.667 142.2 156.467 119 156.467Z" fill="white" fill-opacity="0.8"/>
</svg>
